{
	"nodes":[{
		"name":"Atom Array",
		"children":[1]
	},
	{
		"name":"Sphere",
		"mesh":0
	}],
	"asset":{
		"version":"2.0",
		"generator":"Created using the official Cinema 4D glTF Exporter 1.000x284978"
	},
	"scenes":[{
		"nodes":[0]
	}],
	"meshes":[{
		"name":"Sphere",
		"primitives":[{
			"attributes":{
				"POSITION":1,
				"NORMAL":2,
				"TEXCOORD_0":3
			},
			"indices":0,
			"material":0
		}]
	}],
	"accessors":[{
		"min":[0],
		"bufferView":0,
		"type":"SCALAR",
		"componentType":5123,
		"count":24504,
		"byteOffset":0,
		"max":[9291]
	},
	{
		"min":[-94.95773315429688,
		-95.56999969482422,
		-94.42749786376953],
		"bufferView":1,
		"type":"VEC3",
		"componentType":5126,
		"count":9292,
		"byteOffset":0,
		"max":[94.95773315429688,
		95.56999969482422,
		94.42749786376953]
	},
	{
		"min":[-0.997071385383606,
		-1.0,
		-0.9970710873603821],
		"bufferView":1,
		"type":"VEC3",
		"componentType":5126,
		"count":9292,
		"byteOffset":12,
		"max":[0.997071385383606,
		1.0,
		0.9970710873603821]
	},
	{
		"min":[0.0,
		0.0],
		"bufferView":1,
		"type":"VEC2",
		"componentType":5126,
		"count":9292,
		"byteOffset":24,
		"max":[1.0,
		1.0]
	}],
	"bufferViews":[{
		"buffer":0,
		"byteOffset":0,
		"byteLength":49008,
		"target":34963
	},
	{
		"buffer":0,
		"byteOffset":49008,
		"byteLength":297344,
		"target":34962,
		"byteStride":32
	}],
	"materials":[{
		"doubleSided":false,
		"pbrMetallicRoughness":{
			"baseColorFactor":[0.3768,
			0.24799999999999998,
			0.8,
			1.0],
			"metallicFactor":0.0,
			"roughnessFactor":0.5
		},
		"emissiveFactor":[0.0,
		0.0,
		0.0],
		"alphaMode":"OPAQUE",
		"name":"Mat"
	}],
	"buffers":[{
		"uri":"data:application/octet-stream;base64,",
		"byteLength":346352
	}]
}